<?xml version="1.0" standalone="no"?><!DOCTYPE svg PUBLIC "-//W3C//DTD SVG 1.1//EN" "http://www.w3.org/Graphics/SVG/1.1/DTD/svg11.dtd"><svg t="1687797304930" class="icon" viewBox="0 0 1024 1024" version="1.1" xmlns="http://www.w3.org/2000/svg" p-id="3639" xmlns:xlink="http://www.w3.org/1999/xlink" width="64" height="64"><path d="M512.511744 0.511744C229.952224 0.511744 0.767616 229.696352 0.767616 512.255872s229.184608 511.744128 511.744128 511.744128 511.744128-229.184608 511.744128-511.744128S795.071264 0.511744 512.511744 0.511744z" fill="#515151" p-id="3640"></path><path d="M576.26340673 512.40199794a63.35489093 63.35489093 0 0 1-63.45941086 63.45941084 63.35489093 63.35489093 0 0 1-63.45941084-63.45941084c0-47.5925487-15.86284328-63.45941084-63.45941085-63.45941085-47.5925487 0-63.17399249 16.14826162-63.17399249 63.45941085a63.35489093 63.35489093 0 0 1-63.45941084 63.45941084 63.35489093 63.35489093 0 0 1-63.45539044-63.45941084 63.35489093 63.35489093 0 0 1 63.45539044-63.45941085c47.59656756 0 63.45941084-15.86284328 63.45941084-63.45539043a63.35489093 63.35489093 0 0 1 63.45941085-63.45941084 63.35489093 63.35489093 0 0 1 63.45941084 63.45941084c0 47.5925487 15.86284329 63.45539042 63.45539201 63.45539043 34.56379154 0.28541835 63.17801291 28.61422139 63.17801134 63.45941085zM132.61836749 702.77621006c35.05020886 0 63.45941084-28.40920198 63.45941085-63.45539044 0-35.05020886-28.40920198-63.45941084-63.45941085-63.45941084-35.04619001 0-63.45539042 28.40920198-63.45539041 63.45941084 0 35.04619001 28.40920198 63.45539042 63.45539041 63.45539044zM956.16361676 385.7685946a63.35489093 63.35489093 0 0 1-63.45941084 63.45941084c-47.5925487 0-63.45941084 15.86284328-63.45941085 63.45941086a63.35489093 63.35489093 0 0 1-63.455392 63.45539199c-47.59656756 0-63.45941084 15.86686213-63.45941086 63.45941085a63.35489093 63.35489093 0 0 1-63.45941083 63.45941084 63.35489093 63.35489093 0 0 1-63.45941086-63.45941085 63.35489093 63.35489093 0 0 1 63.45941086-63.45941084c47.5925487 0 63.45941084-15.86284328 63.45941083-63.45539198a63.35489093 63.35489093 0 0 1 63.45941086-63.45941087c47.5925487 0 63.45539042-15.86686213 63.455392-63.45941084a63.35489093 63.35489093 0 0 1 63.45941085-63.45941083c35.13060939 0 63.45941084 28.61422139 63.45941084 63.45941083z" fill="#FFFFFF" p-id="3641"></path></svg>